<svg id="Layer_1" data-name="Layer 1" xmlns="http://www.w3.org/2000/svg" viewBox="0 0 309.49 60.12"><defs><style>.cls-1{fill:#2bb673;}</style></defs><path class="cls-1" d="M99.54,414.38A18.07,18.07,0,0,1,90.36,412,16.76,16.76,0,0,1,84,405.49a21.8,21.8,0,0,1,0-19.65,16.85,16.85,0,0,1,6.41-6.56,18.07,18.07,0,0,1,9.18-2.34,17.12,17.12,0,0,1,10.69,3.32,14.4,14.4,0,0,1,5.51,8.85h-6.19A8,8,0,0,0,106,384a11.71,11.71,0,0,0-6.55-1.83,11.17,11.17,0,0,0-10,6.05,17.8,17.8,0,0,0,0,15,11.57,11.57,0,0,0,4.32,4.57,11.07,11.07,0,0,0,5.69,1.55,11.71,11.71,0,0,0,6.55-1.83,8,8,0,0,0,3.53-5.22h6.19a14.26,14.26,0,0,1-5.47,8.78A17,17,0,0,1,99.54,414.38Z" transform="translate(-81.61 -369.24)"/><path class="cls-1" d="M140.44,414.38a17.89,17.89,0,0,1-9.07-2.3,16.67,16.67,0,0,1-6.38-6.52,21.94,21.94,0,0,1,0-19.8,16.79,16.79,0,0,1,6.44-6.51,18.15,18.15,0,0,1,9.11-2.31,17.92,17.92,0,0,1,9.07,2.31,16.65,16.65,0,0,1,6.38,6.51,20.18,20.18,0,0,1,2.34,9.9,19.82,19.82,0,0,1-2.38,9.9,16.82,16.82,0,0,1-6.44,6.52A18.14,18.14,0,0,1,140.44,414.38Zm0-5.18a11.47,11.47,0,0,0,5.76-1.51,11.36,11.36,0,0,0,4.32-4.54,15.45,15.45,0,0,0,1.65-7.49,15.67,15.67,0,0,0-1.62-7.48,11.07,11.07,0,0,0-4.28-4.54,11.33,11.33,0,0,0-5.69-1.51,11.47,11.47,0,0,0-5.76,1.51,11.36,11.36,0,0,0-4.32,4.54,17.8,17.8,0,0,0,0,15,11.36,11.36,0,0,0,4.29,4.54A11.1,11.1,0,0,0,140.44,409.2Z" transform="translate(-81.61 -369.24)"/><path class="cls-1" d="M179.82,414.38q-6.33,0-10.08-3.85T166,398.69V377.81h6.05V398q0,11.16,9.14,11.16a10,10,0,0,0,7.74-3.35q3.06-3.35,3.06-9.54v-18.5h6v35.71h-5.47l-.44-6.41a12.43,12.43,0,0,1-4.93,5.33A14.12,14.12,0,0,1,179.82,414.38Z" transform="translate(-81.61 -369.24)"/><path class="cls-1" d="M208,413.52V377.81h5.47l.51,6.84a12.91,12.91,0,0,1,5-5.62,15.63,15.63,0,0,1,8.35-2.09v6.34h-1.65a14.86,14.86,0,0,0-5.84,1.12,8.86,8.86,0,0,0-4.25,3.78,14.42,14.42,0,0,0-1.58,7.34v18Z" transform="translate(-81.61 -369.24)"/><path class="cls-1" d="M248.22,413.52q-4.89,0-7.7-2.38c-1.88-1.58-2.81-4.43-2.81-8.56V382.92h-6.19v-5.11h6.19l.79-8.57h5.26v8.57h10.51v5.11H243.76v19.66c0,2.25.45,3.78,1.36,4.57s2.52,1.19,4.83,1.19h3.74v5.18Z" transform="translate(-81.61 -369.24)"/><path class="cls-1" d="M262,413.52V377.81h5.47l.36,6.41a13,13,0,0,1,5-5.33,14,14,0,0,1,7.35-1.95,13.52,13.52,0,0,1,10.11,3.86q3.78,3.84,3.78,11.84v20.88H288V393.29q0-11.16-9.21-11.16a9.93,9.93,0,0,0-7.67,3.35Q268,388.82,268,395v18.5Z" transform="translate(-81.61 -369.24)"/><path class="cls-1" d="M319.21,414.38a17.48,17.48,0,0,1-9.07-2.34,16.55,16.55,0,0,1-6.23-6.51,20.38,20.38,0,0,1-2.27-9.87,20.62,20.62,0,0,1,2.24-9.82,16.19,16.19,0,0,1,6.22-6.56,18,18,0,0,1,9.26-2.34,16.69,16.69,0,0,1,9,2.34,16,16,0,0,1,5.8,6.16,17.34,17.34,0,0,1,2,8.21c0,.53,0,1.05,0,1.58s0,1.13,0,1.8H307.62a14,14,0,0,0,1.91,6.81,11.26,11.26,0,0,0,9.68,5.43,10.79,10.79,0,0,0,6.27-1.73,9.88,9.88,0,0,0,3.67-4.68h6a15.65,15.65,0,0,1-15.91,11.52Zm0-32.32a12.1,12.1,0,0,0-7.67,2.62,10.63,10.63,0,0,0-3.85,7.67h22.47a10.24,10.24,0,0,0-3.32-7.56A11.1,11.1,0,0,0,319.21,382.06Z" transform="translate(-81.61 -369.24)"/><path class="cls-1" d="M346.57,429.36l8.86-19.3h-2.09l-14.18-32.25h6.55l11.8,27.79L370,377.81h6.27l-23.4,51.55Z" transform="translate(-81.61 -369.24)"/><polygon class="cls-1" points="303.38 8.57 279.89 60.12 286.1 60.12 309.49 8.57 303.38 8.57"/></svg>